<?xml version="1.0" encoding="UTF-8"?><svg id="a" xmlns="http://www.w3.org/2000/svg" width="507.073" height="129.826" viewBox="0 0 507.073 129.826"><defs><style>.b{fill:#deaad5;}.b,.c{stroke-width:0px;}.c{fill:#efd8ec;}</style></defs><path class="c" d="m44.491,42.782c.376,8.031.502,16.138.376,24.326-.126,8.186-.627,16.328-1.506,24.42-.503,4.141-2.069,7.656-4.704,10.54-2.635,2.886-6.212,4.548-10.729,4.989-2.635.249-5.365.141-8.187-.33-2.824-.471-5.381-1.316-7.67-2.541-2.291-1.223-4.205-2.854-5.741-4.893-1.538-2.039-2.369-4.501-2.495-7.387,0-8.282.095-16.626.282-25.034.189-8.405.219-16.749.095-25.031l-.095-.094h.095c.94,0,1.99-.032,3.153-.094,1.16-.064,2.336-.096,3.529-.096s2.353.047,3.482.143c1.13.094,2.164.266,3.106.518v.094c-.691,15.184-.409,30.585.847,46.208.439,1.504,1.239,2.603,2.4,3.293s2.368,1.003,3.623.942c1.255-.062,2.414-.503,3.482-1.319,1.066-.813,1.756-1.945,2.071-3.387.313-7.53.486-15.184.518-22.963.031-7.779.142-15.307.329-22.586.815-.062,1.867-.173,3.153-.33,1.285-.155,2.588-.264,3.906-.328,1.318-.062,2.572-.032,3.765.094,1.191.126,2.164.409,2.917.848Z"/><path class="c" d="m63.782,63.768c.314-.19.706-.409,1.177-.661.471-.249.861-.5,1.176-.752,1.318-.942,2.792-1.693,4.423-2.258,1.631-.567,3.309-.88,5.035-.942s3.403.126,5.035.564,3.106,1.223,4.423,2.352c.626.564,1.113,1.743,1.459,3.53.344,1.787.564,3.939.658,6.446.095,2.512.126,5.255.095,8.235-.033,2.98-.08,5.992-.142,9.034-.063,3.044-.127,5.975-.189,8.8-.063,2.822-.032,5.302.095,7.434-2.197.313-4.157.454-5.883.424-1.725-.032-3.686-.047-5.881-.047-.127-1.444-.189-3.074-.189-4.895s.015-3.7.048-5.645c.031-1.945.031-3.89,0-5.834-.033-1.945-.111-3.766-.235-5.46-.064-.752-.127-1.582-.189-2.495-.063-.907-.174-1.802-.329-2.682-.158-.878-.377-1.661-.659-2.352s-.674-1.223-1.176-1.6c-.064-.062-.127-.094-.189-.094-.063,0-.127-.032-.189-.096-.503-.249-1.24-.454-2.211-.611-.974-.155-1.929-.094-2.87.19-.942.281-1.788.845-2.541,1.693-.753.845-1.192,2.117-1.318,3.811-.126,2.196-.157,4.346-.094,6.446.062,2.103.141,4.205.235,6.305.094,2.103.141,4.188.141,6.258s-.126,4.141-.376,6.212v.377c-1.067.313-1.993.5-2.777.564-.785.062-1.585.076-2.4.047-.816-.032-1.725-.079-2.729-.141-1.004-.064-2.259-.035-3.764.094,0-7.718-.08-15.435-.235-23.151-.158-7.718-.111-15.716.141-23.999.753.064,1.379.111,1.882.141.502.035.972.049,1.412.049.438,0,.908-.015,1.411-.049.502-.03,1.129-.076,1.882-.141.25,0,.69-.047,1.318-.141s1.255-.173,1.882-.234c.627-.064,1.192-.079,1.695-.049.502.035.753.143.753.33.124,1.067.171,1.945.141,2.635-.032.69-.016,1.474.047,2.354Z"/><path class="c" d="m105.094,58.402h1.601v.283c-.064,7.592-.205,15.339-.424,23.244-.221,7.905-.111,15.655.329,23.244-.314.377-1.098.579-2.353.611-1.256.032-2.62.032-4.093,0-1.475-.032-2.87-.076-4.188-.141-1.318-.062-2.197-.03-2.635.094.313-3.951.454-7.967.423-12.046-.032-4.077-.11-8.124-.234-12.14-.127-4.013-.189-7.981-.189-11.903s.189-7.732.564-11.435v-.094c.25-.062.673-.062,1.271,0,.595.062,1.05.094,1.364.094.815.064,1.944.126,3.388.187,1.442.064,3.167.064,5.175,0Zm-11.574-20.516l12.798.283c0,.377.015,1.05.047,2.024.031.974.062,2.039.095,3.199.031,1.161.062,2.352.094,3.577.031,1.223.047,2.305.047,3.246-.251.375-.832.629-1.74.752-.911.128-1.977.175-3.201.141-1.223-.03-2.525-.094-3.904-.187-1.382-.094-2.668-.108-3.859-.047,0-1.819-.079-3.717-.235-5.694-.158-1.977-.205-4.407-.141-7.294Z"/><path class="c" d="m149.325,87.671c-.127,1.632-.251,3.232-.377,4.799-.127,1.57-.282,3.027-.471,4.375-.187,1.351-.423,2.512-.705,3.483-.282.974-.645,1.679-1.082,2.117-1.069,1.506-2.464,2.573-4.188,3.199-1.727.626-3.593,1.018-5.6,1.176s-4.078.158-6.21,0c-2.133-.158-4.079-.234-5.834-.234-3.201-.564-5.899-1.945-8.094-4.141-1.695-1.506-2.856-3.387-3.482-5.647-.629-2.258-1.004-4.624-1.13-7.104-.126-2.477-.141-4.972-.047-7.481s.015-4.802-.235-6.87c0-2.26.189-4.518.564-6.776.062-.69.282-1.632.659-2.825.376-1.191.658-2.1.847-2.729.439-.942,1.144-1.755,2.117-2.448.972-.688,2.101-1.269,3.388-1.74,1.285-.471,2.666-.799,4.141-.988,1.473-.187,2.964-.281,4.47-.281,1.253.126,2.461.141,3.622.047s2.401-.079,3.718.047c2.006.126,3.919.503,5.74,1.129,1.819.629,3.388,1.57,4.706,2.822.879.629,1.553,1.476,2.024,2.541.471,1.067.831,2.322,1.082,3.764.25,1.444.391,3.059.424,4.849.031,1.787.078,3.717.141,5.788-.816.187-1.74.281-2.776.281s-2.103-.03-3.199-.094c-1.099-.062-2.165-.155-3.201-.283-1.035-.123-1.961-.249-2.776-.375-.314-2.196-1.224-3.907-2.73-5.13-1.505-1.223-3.482-1.521-5.928-.895-1.318.377-2.385,1.067-3.199,2.071-.377.251-.659.88-.847,1.883-.251,1.945-.377,3.922-.377,5.928s-.063,4.109-.189,6.305c-.126,1.444.235,2.573,1.083,3.387.847.818,1.866,1.366,3.058,1.649,1.192.281,2.414.345,3.67.187,1.255-.155,2.259-.486,3.012-.988.626-.439,1.113-1.176,1.458-2.211.344-1.035.611-1.96.8-2.776.626.062,1.474.079,2.541.047,1.066-.032,2.195-.079,3.388-.143,1.191-.062,2.32-.076,3.388-.047,1.065.032,1.944.143,2.635.33Z"/><path class="c" d="m155.534,62.827c.439-.942,1.144-1.757,2.117-2.448.972-.69,2.101-1.269,3.388-1.74,1.285-.471,2.666-.801,4.141-.988,1.473-.187,2.964-.283,4.47-.283,1.253.128,2.461.143,3.622.047,1.161-.094,2.401-.076,3.718.049,2.006.126,3.919.518,5.74,1.176,1.819.658,3.388,1.615,4.706,2.869.879.564,1.568,1.476,2.071,2.729.502,1.257.878,2.716,1.129,4.378.25,1.661.408,3.48.471,5.457.062,1.977.126,4.001.189,6.071-.063,1.819-.142,3.89-.235,6.209-.094,2.322-.251,4.55-.471,6.682-.221,2.135-.503,4.047-.847,5.741-.345,1.693-.832,2.857-1.458,3.483-1.069,1.504-2.464,2.573-4.188,3.199-1.727.626-3.593,1.018-5.6,1.176-2.008.155-4.078.155-6.21,0-2.133-.158-4.079-.234-5.834-.234-3.201-.567-5.899-1.945-8.094-4.141-1.695-1.506-2.856-3.389-3.482-5.647-.629-2.258-1.004-4.627-1.13-7.106-.126-2.477-.141-4.969-.047-7.481.094-2.509.047-4.799-.141-6.87,0-1.129.031-2.243.094-3.34.062-1.097.189-2.243.376-3.436.062-.688.282-1.615.659-2.776.376-1.161.658-2.085.847-2.776Zm11.764,11.105c-.377.251-.659.88-.847,1.881-.251,2.009-.377,4.001-.377,5.977s-.063,4.062-.189,6.258c-.063,1.442.314,2.556,1.13,3.34.815.786,1.802,1.316,2.964,1.6,1.16.283,2.368.345,3.623.187,1.253-.155,2.289-.454,3.106-.892,1.066-.503,1.787-1.538,2.164-3.106.25-2.006.454-4.03.611-6.071.157-2.039.047-3.966-.329-5.788-.314-2.194-1.224-3.794-2.73-4.799-1.505-1.003-3.482-1.223-5.928-.658-1.318.377-2.385,1.067-3.199,2.071Z"/><path class="c" d="m209.741,61.979c.25-.126.831-.377,1.74-.752.91-.377,1.803-.722,2.683-1.035,1.191-.377,2.54-.673,4.046-.895,1.506-.219,2.917-.36,4.235-.424,1.318-.062,2.43-.076,3.341-.047.908.032,1.364.079,1.364.141,0,2.135-.016,4.018-.047,5.647-.032,1.632-.047,3.091-.047,4.375v3.53c0,1.067.031,2.071.094,3.012l-.847-.283c-.316-.123-.645-.234-.988-.328-.345-.094-.675-.205-.988-.33-.753-.187-1.522-.345-2.305-.471-.786-.126-1.209-.187-1.271-.187-1.695-.19-3.248-.283-4.659-.283s-2.635.222-3.67.661-1.835,1.129-2.4,2.068c-.564.942-.816,2.292-.753,4.047.062,2.196.124,4.267.189,6.212.062,1.945.094,3.904.094,5.881s.015,3.986.047,6.024c.031,2.039.047,4.22.047,6.539v.377c-1.067.313-2.039.5-2.917.564-.879.062-1.787.076-2.729.047-.942-.032-1.962-.079-3.059-.141-1.098-.064-2.4-.035-3.904.094,0-7.718-.08-15.435-.235-23.151-.158-7.718-.111-15.716.141-23.999.753.064,1.379.111,1.882.141.502.035.972.049,1.412.049.438,0,.908-.015,1.411-.049.502-.03,1.129-.076,1.882-.141.25,0,.706-.03,1.364-.094.659-.062,1.35-.126,2.071-.187s1.348-.079,1.882-.047c.532.032.8.108.8.234v1.74c0,.158.015.33.048.518.031.19.047.503.047.942Z"/><path class="c" d="m247.348,52.557c.398-.24.893-.518,1.489-.836.596-.315,1.09-.633,1.487-.951,1.667-1.191,3.531-2.142,5.595-2.856,2.063-.717,4.186-1.113,6.369-1.191s4.304.159,6.369.714,3.929,1.547,5.595,2.975c.792.714,1.408,2.204,1.846,4.465.435,2.261.714,4.983.833,8.154.12,3.177.159,6.648.12,10.417-.042,3.77-.101,7.58-.179,11.428-.08,3.851-.161,7.558-.239,11.131-.08,3.57-.041,6.707.12,9.404-2.78.396-5.259.574-7.441.536-2.183-.041-4.663-.059-7.44-.059-.161-1.827-.239-3.888-.239-6.192s.019-4.68.061-7.14c.039-2.46.039-4.92,0-7.38-.042-2.46-.14-4.764-.298-6.906-.081-.951-.161-2.002-.239-3.155-.08-1.147-.22-2.279-.416-3.392-.2-1.11-.477-2.102-.834-2.975s-.853-1.547-1.487-2.024c-.081-.078-.161-.118-.239-.118-.08,0-.161-.041-.239-.122-.636-.315-1.568-.574-2.797-.773-1.232-.196-2.44-.118-3.631.24-1.191.355-2.262,1.069-3.215,2.142-.953,1.069-1.508,2.678-1.667,4.82-.159,2.778-.198,5.497-.118,8.154.078,2.66.178,5.319.298,7.976.118,2.66.178,5.298.178,7.917s-.159,5.238-.475,7.857v.477c-1.35.396-2.521.633-3.512.714-.993.078-2.005.097-3.035.059-1.032-.041-2.183-.1-3.452-.178-1.271-.081-2.858-.044-4.761.118,0-9.763-.101-19.525-.298-29.284-.2-9.763-.14-19.881.178-30.357.953.081,1.745.14,2.381.178.635.044,1.23.062,1.787.062.553,0,1.149-.019,1.785-.062.635-.037,1.428-.097,2.381-.178.316,0,.873-.059,1.667-.178s1.587-.218,2.381-.296c.794-.081,1.508-.1,2.144-.062.635.044.953.181.953.418.157,1.35.217,2.46.178,3.333-.041.873-.02,1.865.059,2.978Z"/><path class="c" d="m279.863,37.281c-.594,1.204-1.907,1.909-3.228,1.671-.009-.002-.017-.003-.026-.005-.873-.155-1.799-.343-2.777-.561l-.029-.007c-1.507-.334-2.531-1.726-2.385-3.263.04-.424.076-.855.108-1.291.031-.43.098-.796.201-1.171.599-2.19,1.604-4.248,2.83-6.159l14.273-22.242c.536-.89,1.903-.276,1.584.713-3.267,10.141-8.978,27.822-9.801,30.626-.083.284-.194.56-.325.826l-.425.861Z"/><polyline class="c" points="264.881 47.101 267.845 34.251 289.17 35.34 289.25 45.59 269.149 51.785"/><path class="b" d="m343.607,39.299l2.541,65.875c-1.067.19-2.212.316-3.435.377-1.224.064-2.417.094-3.577.094h-3.388c-1.098,0-2.024.032-2.776.094h-.095c-.314-2.071-.518-4.218-.611-6.446-.094-2.226-.158-4.437-.189-6.636-.032-2.194-.079-4.39-.141-6.586-.064-2.196-.221-4.296-.471-6.305l-.094-.094c-1.82-.313-3.639-.471-5.459-.471s-3.639.219-5.459.658c-.189,2.196-.267,4.36-.235,6.493.031,2.135.078,4.269.142,6.401.062,2.132.078,4.22.047,6.256-.032,2.041-.205,4.065-.518,6.071-.753.439-1.757.658-3.012.658s-2.509-.062-3.764-.187c-1.256-.126-2.432-.219-3.529-.283-1.098-.062-1.93.064-2.495.377-.126-1.755-.267-4.156-.423-7.2-.158-3.042-.298-6.461-.424-10.257-.127-3.796-.235-7.826-.329-12.093-.095-4.267-.174-8.548-.235-12.845-.063-4.299-.079-8.437-.047-12.423.031-3.983.078-7.575.141-10.777v-.094h.282c.942.19,1.93.251,2.965.19s2.071-.126,3.105-.19c1.035-.062,2.055-.094,3.059-.094s1.944.126,2.824.377c.564,4.328.847,8.534.847,12.611s.376,8.124,1.129,12.14h.095c1.566.377,3.261.486,5.081.328,1.819-.155,3.513-.296,5.081-.422h.095c.376-4.331.579-8.376.611-12.14.031-3.766-.047-7.905-.235-12.423.753-.249,1.677-.471,2.777-.658,1.097-.19,2.242-.33,3.435-.424,1.191-.094,2.368-.126,3.529-.094,1.16.032,2.211.079,3.153.141Z"/><path class="b" d="m363.84,58.402h1.601v.283c-.064,7.592-.205,15.339-.424,23.244-.221,7.905-.111,15.655.329,23.244-.314.377-1.098.579-2.353.611-1.256.032-2.62.032-4.093,0-1.475-.032-2.87-.076-4.188-.141-1.318-.062-2.197-.03-2.635.094.313-3.951.454-7.967.423-12.046-.032-4.077-.11-8.124-.234-12.14-.127-4.013-.189-7.981-.189-11.903s.189-7.732.564-11.435v-.094c.25-.062.673-.062,1.271,0,.595.062,1.05.094,1.364.094.815.064,1.944.126,3.388.187,1.442.064,3.167.064,5.175,0Z"/><path class="b" d="m384.731,61.979c.25-.126.831-.377,1.74-.752.91-.377,1.803-.722,2.683-1.035,1.191-.377,2.54-.673,4.046-.895,1.506-.219,2.917-.36,4.235-.424,1.318-.062,2.43-.076,3.341-.047.908.032,1.364.079,1.364.141,0,2.135-.016,4.018-.047,5.647-.032,1.632-.047,3.091-.047,4.375v3.53c0,1.067.031,2.071.094,3.012l-.847-.283c-.316-.123-.645-.234-.988-.328-.345-.094-.675-.205-.988-.33-.753-.187-1.522-.345-2.305-.471-.786-.126-1.209-.187-1.271-.187-1.695-.19-3.248-.283-4.659-.283s-2.635.222-3.67.661-1.835,1.129-2.4,2.068c-.564.942-.816,2.292-.753,4.047.062,2.196.124,4.267.189,6.212.062,1.945.094,3.904.094,5.881s.015,3.986.047,6.024c.031,2.039.047,4.22.047,6.539v.377c-1.067.313-2.039.5-2.917.564-.879.062-1.787.076-2.729.047-.942-.032-1.962-.079-3.059-.141-1.098-.064-2.4-.035-3.904.094,0-7.718-.08-15.435-.235-23.151-.158-7.718-.111-15.716.141-23.999.753.064,1.379.111,1.882.141.502.035.972.049,1.412.049.438,0,.908-.015,1.411-.049.502-.03,1.129-.076,1.882-.141.25,0,.706-.03,1.364-.094.659-.062,1.35-.126,2.071-.187s1.348-.079,1.882-.047c.532.032.8.108.8.234v1.74c0,.158.015.33.048.518.031.19.047.503.047.942Z"/><path class="b" d="m417.95,58.402h1.601v.283c-.064,7.592-.205,15.339-.424,23.244-.221,7.905-.111,15.655.329,23.244-.314.377-1.098.579-2.353.611-1.256.032-2.62.032-4.093,0-1.475-.032-2.87-.076-4.188-.141-1.318-.062-2.197-.03-2.635.094.313-3.951.454-7.967.423-12.046-.032-4.077-.11-8.124-.234-12.14-.127-4.013-.189-7.981-.189-11.903s.189-7.732.564-11.435v-.094c.25-.062.673-.062,1.271,0,.595.062,1.05.094,1.364.094.815.064,1.944.126,3.388.187,1.442.064,3.167.064,5.175,0Zm-11.574-20.516l12.798.283c0,.377.015,1.05.047,2.024.031.974.062,2.039.095,3.199.031,1.161.062,2.352.094,3.577.031,1.223.047,2.305.047,3.246-.251.375-.832.629-1.74.752-.911.128-1.977.175-3.201.141-1.223-.03-2.525-.094-3.904-.187-1.382-.094-2.668-.108-3.859-.047,0-1.819-.079-3.717-.235-5.694-.158-1.977-.205-4.407-.141-7.294Z"/><path class="b" d="m438.464,63.768c.314-.19.706-.409,1.177-.661.471-.249.861-.5,1.176-.752,1.318-.942,2.792-1.693,4.423-2.258,1.631-.567,3.309-.88,5.035-.942s3.403.126,5.035.564,3.106,1.223,4.423,2.352c.626.564,1.113,1.743,1.459,3.53.344,1.787.564,3.939.658,6.446.095,2.512.126,5.255.095,8.235-.033,2.98-.08,5.992-.142,9.034-.063,3.044-.127,5.975-.189,8.8-.063,2.822-.032,5.302.095,7.434-2.197.313-4.157.454-5.883.424-1.725-.032-3.686-.047-5.881-.047-.127-1.444-.189-3.074-.189-4.895s.015-3.7.048-5.645c.031-1.945.031-3.89,0-5.834-.033-1.945-.111-3.766-.235-5.46-.064-.752-.127-1.582-.189-2.495-.063-.907-.174-1.802-.329-2.682-.158-.878-.377-1.661-.659-2.352s-.674-1.223-1.176-1.6c-.064-.062-.127-.094-.189-.094-.063,0-.127-.032-.189-.096-.503-.249-1.24-.454-2.211-.611-.974-.155-1.929-.094-2.87.19-.942.281-1.788.845-2.541,1.693-.753.845-1.192,2.117-1.318,3.811-.126,2.196-.157,4.346-.094,6.446.062,2.103.141,4.205.235,6.305.094,2.103.141,4.188.141,6.258s-.126,4.141-.376,6.212v.377c-1.067.313-1.993.5-2.777.564-.785.062-1.585.076-2.4.047-.816-.032-1.725-.079-2.729-.141-1.004-.064-2.259-.035-3.764.094,0-7.718-.08-15.435-.235-23.151-.158-7.718-.111-15.716.141-23.999.753.064,1.379.111,1.882.141.502.035.972.049,1.412.049.438,0,.908-.015,1.411-.049.502-.03,1.129-.076,1.882-.141.25,0,.69-.047,1.318-.141s1.255-.173,1.882-.234c.627-.064,1.192-.079,1.695-.049.502.035.753.143.753.33.124,1.067.171,1.945.141,2.635-.032.69-.016,1.474.047,2.354Z"/><path class="b" d="m493.894,124.561c-.627.126-1.757.155-3.388.094-1.632-.062-3.733-.094-6.305-.094-2.949,0-5.584-.629-7.905-1.883-2.322-1.255-4.204-2.948-5.646-5.08-.251-.441-.487-1.02-.706-1.743-.221-.72-.409-1.457-.564-2.211-.158-.752-.251-1.474-.282-2.164-.032-.69-.016-1.287.047-1.787.626-.251,1.474-.424,2.541-.518,1.066-.094,2.179-.128,3.34-.094,1.161.03,2.29.094,3.388.187,1.097.094,2.024.202,2.777.33,0,1.629.518,2.931,1.553,3.904,1.035.971,2.195,1.521,3.482,1.647,1.285.126,2.541-.187,3.764-.942,1.224-.752,2.024-2.009,2.4-3.764.063-.629.126-1.269.189-1.928.062-.661.062-1.24,0-1.743-.126-1.065-.126-2.164,0-3.293-.627.69-1.364,1.193-2.211,1.506-.848.313-1.757.532-2.73.658s-1.961.187-2.964.187-1.945.032-2.824.096c-1.192,0-2.4-.096-3.622-.283-1.224-.187-2.386-.5-3.483-.942-1.098-.436-2.087-1.035-2.964-1.787-.879-.754-1.6-1.725-2.164-2.918-.88-1.693-1.506-3.466-1.882-5.317-.377-1.849-.629-3.747-.753-5.694,0-2.948.062-6.116.189-9.505.124-3.387.673-6.572,1.647-9.552.971-2.978,2.524-5.489,4.659-7.528,2.132-2.039,5.206-3.185,9.223-3.436,2.006-.123,3.872.143,5.599.801,1.724.658,2.964,1.868,3.717,3.623.25.126.391.015.424-.33.031-.343.031-.784,0-1.316-.033-.532-.064-1.067-.095-1.6-.032-.532.047-.956.235-1.272,2.071-.249,4.172-.328,6.305-.234,2.132.094,4.266.141,6.399.141.25,7.843.392,16.047.424,24.61.031,8.563-.142,17.363-.518,26.397-.063,1.506-.063,2.995,0,4.469.062,1.474-.221,2.714-.847,3.717-.88,1.38-1.774,2.48-2.682,3.296-.911.813-1.804,1.459-2.683,1.928-.879.471-1.756.801-2.635.988-.879.19-1.693.313-2.446.377Zm-16.281-41.125v.845c0,3.202.942,5.931,2.824,8.189,1.129,1.38,2.635,2.211,4.517,2.495,1.882.281,3.638.173,5.27-.33.564-.187,1.003-.486,1.318-.895.313-.407.564-.878.753-1.41s.329-1.097.424-1.693c.094-.597.171-1.178.235-1.743,0-2.507-.048-5.065-.142-7.668s-.456-5.097-1.082-7.484c-.377-.939-.988-1.676-1.835-2.211-.847-.532-1.774-.86-2.777-.988-1.004-.123-1.992-.047-2.964.237-.974.281-1.835.737-2.588,1.363-.94,1.07-1.74,2.246-2.4,3.53-.658,1.287-1.114,2.652-1.364,4.094-.127.629-.189,1.24-.189,1.834v1.836Z"/><path class="b" d="m352.36,37.887l12.798.283c0,.377.015,1.05.047,2.024.031.974.062,2.039.095,3.199.031,1.161.062,2.352.094,3.577.031,1.223.047,2.305.047,3.246-.251.375-.832.629-1.74.752-.911.128-1.977.175-3.201.141-1.223-.03-2.525-.094-3.904-.187-1.382-.094-2.668-.108-3.859-.047,0-1.819-.079-3.717-.235-5.694-.158-1.977-.205-4.407-.141-7.294Z"/></svg>